<?xml version="1.0" encoding="UTF-8"?><svg id="Capa_2" xmlns="http://www.w3.org/2000/svg" width="400" height="400" viewBox="0 0 400 400"><defs><style>
.user1{fill:var(--azul);}
.user2{fill:var(--blanco);}
</style></defs><g id="Capa_1-2"><g><g><path class="user1" d="m400,200c0,46.8-16.09,89.87-43.05,123.94-12.4,15.7-27.11,29.49-43.61,40.85-32.21,22.21-71.25,35.21-113.34,35.21s-81.13-13-113.34-35.21c-16.5-11.36-31.21-25.15-43.61-40.85C16.09,289.87,0,246.8,0,200,0,89.57,89.54,0,200,0s200,89.57,200,200Z"/><path class="user2" d="m356.95,323.94c-12.4,15.7-27.11,29.49-43.61,40.85-32.21,22.21-71.25,35.21-113.34,35.21s-81.13-13-113.34-35.21c-16.5-11.36-31.21-25.15-43.61-40.85,22.08-45.9,56.01-81.4,96.27-99.41.01,0,.02-.01.03-.01,18.99-8.52,39.42-13.14,60.65-13.14s41.66,4.62,60.65,13.14c.01,0,.02.01.03.01,40.26,18.01,74.19,53.51,96.27,99.41Z"/><circle class="user2" cx="200" cy="154.97" r="92.31"/></g><path class="user1" d="m249.89,134.59c-6.03.31-11.51,1.1-23.91,3.42-13.98,2.63-18.55,3.18-26.02,3.18-6.74-.01-9.65-.39-21.24-2.81-6.78-1.41-9.28-1.81-16.95-2.73-6.03-.72-8.74-.93-13.08-1.03-7.82-.17-12.59.44-27.53,3.46-3.77.76-7.69,1.53-8.72,1.72-1.03.17-1.91.35-1.98.39-.08.04-.23,1.22-.32,2.6-.17,2.39-.17,2.62.1,4.22.41,2.39.66,2.84,3.09,5.5,2.04,2.24,2.84,3.26,3.4,4.39.17.32.69,2,1.17,3.73,1.93,7.08,4.45,13.94,7.32,19.92,1.1,2.29,1.9,3.46,3.39,4.9,1.87,1.8,3.98,3.15,6.88,4.4,7.43,3.18,17.05,4.28,26.7,3.04,6.23-.8,10.96-2.74,15.42-6.33,1.65-1.34,4.63-4.4,5.99-6.19,2.66-3.47,5.82-8.83,6.94-11.68.27-.7.9-2.72,1.42-4.49,1.79-6.18,2.94-8.43,4.74-9.24.72-.32.86-.34,3.74-.31,3.67.03,4.15.14,5.3,1.2,1.76,1.6,2.63,3.26,4.14,7.84,1.32,3.97,2.12,6.02,3.39,8.69,2.83,5.92,6.39,10.51,10.58,13.66,1.76,1.31,2.93,2.01,5.11,3.07,10.21,4.9,23.66,5.44,33.97,1.38,7.2-2.86,12.53-7.85,15.29-14.33.9-2.14,1.74-4.68,2.66-8.09,1.53-5.68,2.76-9.8,3.31-11.18,1.06-2.66,2.39-4.45,4.12-5.54.49-.31,1.03-.73,1.18-.93.39-.51.51-1.55.34-3.52-.07-.97-.08-2.04-.01-2.53.3-2.12.3-2.22-.06-2.88-.48-.93-1.11-1.22-3.5-1.63-2.28-.38-3.25-.6-8.69-2-4.49-1.15-5.53-1.35-11.61-2.19-8.64-1.2-10.69-1.34-16.04-1.06Zm-89.78,3.64c5.12.23,7.93.63,12.83,1.84,9.73,2.41,14.76,5.81,16.42,11.1.28.94.32,1.32.32,3.52-.01,2.18-.06,2.64-.39,4.12-.8,3.4-2.24,7.1-4.64,11.99-2.28,4.63-3.78,6.85-6.49,9.62-5.25,5.36-11.76,8.34-20.12,9.23-6.41.68-14.93-.37-19.75-2.41-4.61-1.96-8.23-5.43-10.51-10.11-1.17-2.41-3-8.07-3.92-12.17-.97-4.23-1.28-6.96-1.28-10.97,0-3.47.06-3.9.76-5.77,1.32-3.53,5.28-6.26,11.2-7.72,3.9-.97,12.42-1.98,18.92-2.25,1.51-.06,2.94-.13,3.17-.13.24-.01,1.8.04,3.49.11Zm87.25,0c4.57.2,9.8.66,14.14,1.28,10.54,1.48,15.66,4.59,17.04,10.33.25,1.08.3,1.69.3,4.08,0,5.66-1.01,11.16-3.4,18.37-1.77,5.39-3.09,7.74-5.89,10.55-3.22,3.21-6.7,4.98-11.7,5.96-6.09,1.2-12.08,1.36-17.12.49-9.17-1.58-16.25-6.05-21.14-13.38-2.43-3.63-6.05-11.69-7.17-15.97-.82-3.11-1-5.37-.62-7.57.96-5.51,5.44-9.14,14.55-11.75,5.01-1.43,9.51-2.18,14.53-2.39,1.34-.07,2.63-.13,2.86-.13.24-.01,1.89.04,3.66.11Z"/><path class="user1" d="m313.34,287.61v77.18c-32.21,22.21-71.25,35.21-113.34,35.21s-81.13-13-113.34-35.21v-77.18c0-6.37,5.16-11.52,11.52-11.52h203.64c6.36,0,11.52,5.15,11.52,11.52Z"/></g></g></svg>