<?xml version="1.0" encoding="UTF-8"?><svg id="Capa_2" xmlns="http://www.w3.org/2000/svg"  viewBox="0 0 180 180"><defs><style>
.cls-1{fill:var(--azul);}
.cls-2{fill:var(--amarillo);}
</style></defs><g id="Capa_1-2"><g><circle class="cls-2" cx="90" cy="90" r="90"/><g><path class="cls-1" d="m89.5,63.31c11.72,0,23.44,0,35.15,0,.78,0,1.56,0,2.33.04.89.05,1.63.39,1.96,1.29.32.88.09,1.69-.64,2.24-.8.59-1.06,1.38-1.16,2.29-1.23,11.59-2.47,23.18-3.7,34.77-1.17,11.04-2.38,22.07-3.49,33.12-.31,3.05-.45,6.08-2.22,8.76-2.7,4.1-6.39,6.37-11.38,6.36-11,0-21.99,0-32.99,0-6.5,0-11.44-3.79-13.31-10.05-1.04-3.5-1.05-7.13-1.43-10.7-1.7-16.06-3.3-32.13-4.94-48.2-.48-4.69-.96-9.39-1.4-14.09-.08-.89-.28-1.58-1.16-2.02-.87-.43-1.32-1.23-1.07-2.21.27-1.05,1.06-1.52,2.11-1.55.83-.03,1.67-.03,2.5-.03,11.61,0,23.21,0,34.82,0Zm3.38,46.79c0-10.05,0-20.09,0-30.14,0-.78,0-1.56-.1-2.33-.31-2.45-1.82-3.79-4.08-3.69-3.04.13-4.24,1.26-4.34,4.08-.02.5-.01,1-.01,1.5,0,20.37,0,40.74,0,61.11,0,.72-.01,1.45.06,2.16.19,2,1.48,3.21,3.49,3.34,3.31.21,4.97-1.32,4.98-4.72.02-10.43,0-20.87.01-31.3Zm-17.26,30.53c-.27-4.28-.5-8.27-.77-12.26-.86-13.02-1.72-26.03-2.61-39.05-.29-4.21-.53-8.42-.99-12.61-.26-2.41-2.17-3.52-4.8-3.17-2.21.29-3.7,1.94-3.56,4.08.52,8.25,1.06,16.51,1.61,24.76.64,9.64,1.29,19.27,1.93,28.91.23,3.43.41,6.87.71,10.3.25,2.88,1.86,4.2,4.64,4.01,2.81-.19,3.93-1.74,3.83-4.97Zm39.71-61.03s-.02,0-.03,0c.01-.22.03-.44.04-.66.17-2.86-1.13-4.36-3.99-4.61-2.6-.23-4.29,1.2-4.51,3.97-.62,7.74-1.17,15.49-1.78,23.24-.71,9.07-1.45,18.14-2.18,27.21-.35,4.43-.74,8.85-1.04,13.28-.16,2.36,1.39,4.08,3.71,4.26,2.85.23,4.49-1.01,4.76-3.63.11-1.05.21-2.1.29-3.15.71-9.13,1.41-18.26,2.13-27.39.86-10.84,1.73-21.68,2.6-32.53Z"/><path class="cls-1" d="m88.08,35.94c-.1-1.38-.12-2.78-.31-4.15-.2-1.48.42-1.77,1.78-1.75,3.84.04,7.04,1.78,10.28,3.5.86.46.95.99.44,1.73-.82,1.19-1.59,2.41-2.48,3.55-.83,1.07-.78,1.6.63,2.08,9.26,3.12,18.49,6.31,27.74,9.48,3.73,1.28,4.55,2.99,3.25,6.75-.22.63-.45,1.26-.67,1.88-1.02,2.85-1.01,2.83-3.96,1.82-23-7.9-45.99-15.8-69-23.66-1.39-.47-1.95-1.06-1.33-2.52.5-1.17.83-2.42,1.28-3.61,1.06-2.81,2.94-3.79,5.77-2.84,8.31,2.81,16.6,5.68,24.9,8.52.76.26,1.81.98,1.67-.76Z"/></g></g></g></svg>