<?xml version="1.0" encoding="UTF-8"?><svg id="Capa_2" xmlns="http://www.w3.org/2000/svg"  viewBox="0 0 180 180"><defs><style>
.cls-1{fill:var(--azul);}
.cls-2{fill:var(--amarillo);}
</style></defs><g id="Capa_1-2"><g><circle class="cls-2" cx="90" cy="90" r="90"/><path class="cls-1" d="m92.73,130.46c-7.89-2.3-15.77-4.59-23.66-6.89l-1.86.7c-2.29,7.01,3.25,14.62,9.68,16.5,6.43,1.87,15.19-1.57,17.03-8.72l1.86-.7c10.69,3.11,21.37,6.22,32.06,9.34l.87-.16c.64.02.93-.3,1.11-.92,1.74-5.85.14-10.88-3.89-15.18-3.79-4.05-4.38-8.42-2.71-13.65,3.02-9.46,5.54-19.08,8.45-28.59,1.32-4.31,1.51-8.67.8-12.99-1.2-7.28-4.55-12.8-5.44-14.17-5.25-8.08-12.4-11.98-15.83-13.57.7-2.42,1.56-4.8,2.08-7.26.73-3.46-.72-6.42-3.26-7.16-2.53-.74-5.36.98-6.59,4.29-.88,2.35-1.44,4.82-2.15,7.24-3.75-.5-11.88-1.05-20.64,2.95-1.49.68-7.28,3.54-12.2,9.04-2.93,3.27-5.1,7.04-6.3,11.39-2.65,9.58-5.7,19.04-8.23,28.65-1.4,5.32-4.25,8.68-9.61,10.06-5.71,1.47-9.77,4.85-11.42,10.72l1.08,1.97c10.69,3.11,21.37,6.22,32.06,9.34l26.71,7.78Z"/><path class="cls-2" d="m116.97,112.4c-1.26,4.95-.82,9.08,2.03,12.91,3.03,4.07,4.23,8.82,2.92,14.36-.14.59-.35.88-.83.87l-.65.15c-2.48-.91-4.95-1.82-7.42-2.72.84-4.97-.41-9.3-3.19-13.03-2.85-3.83-3.29-7.96-2.03-12.91,0,0,.82-3.03,6.34-27.04,2.04-8.87,3.06-13.31,2.31-17.27-1.84-9.7-9.13-16.01-11.34-17.93-4.45-3.86-8.92-5.9-11.87-6.99,3.69.48,14.49,2.37,22.97,11.49,2.14,2.3,7.75,8.49,8.81,17.66.4,3.44-.3,6.77-1.7,13.43-3.25,15.47-6.34,27.04-6.34,27.04Z"/></g></g></svg>