<?xml version="1.0" encoding="UTF-8"?><svg id="Capa_2" xmlns="http://www.w3.org/2000/svg"  viewBox="0 0 180 180"><defs><style>
.cls-1{fill:var(--azul);}
.cls-2{fill:var(--amarillo);}
</style></defs><g id="Capa_1-2"><g><circle class="cls-2" cx="90" cy="90" r="90"/><g><path class="cls-1" d="m94.93,149.03c0,1.67,0,3.33,0,5,0,.67-.22,1.19-.82,1.5-.61.31-1.16.15-1.68-.25-4.28-3.33-8.57-6.66-12.85-9.98-4.9-3.81-9.81-7.62-14.71-11.42-.75-.58-1.5-1.16-2.24-1.75-1.06-.83-1.06-1.84.01-2.67,2.62-2.04,5.24-4.07,7.86-6.1,4-3.11,7.99-6.22,11.99-9.33,3.08-2.4,6.17-4.79,9.26-7.18.27-.21.53-.43.81-.63.51-.37,1.07-.41,1.62-.12.53.29.76.78.76,1.38,0,3.33,0,6.67,0,10,0,.73,0,.74.73.73,6.73-.11,13.03-1.87,18.93-5.07,2.87-1.56,5.53-3.42,8-5.55,3.83-3.31,7.09-7.13,9.8-11.41,3.45-5.43,5.89-11.28,7.45-17.51.06-.25.1-.52.37-.66.36-.19.76.03.85.52.14.82.26,1.65.35,2.47.32,2.96.48,5.93.4,8.9-.16,6.09-1.13,12.05-3,17.86-1.65,5.12-3.92,9.93-6.91,14.41-2.94,4.41-6.43,8.31-10.58,11.63-4.31,3.45-9.06,6.06-14.33,7.72-3,.95-6.08,1.53-9.22,1.75-.78.06-1.57.1-2.35.08-.38,0-.51.12-.5.51.02,1.73,0,3.46,0,5.2Z"/><path class="cls-1" d="m85.07,30.97c0-1.67,0-3.33,0-5,0-.67.22-1.19.82-1.5.61-.31,1.16-.15,1.68.25,4.28,3.33,8.57,6.66,12.85,9.98,4.9,3.81,9.81,7.62,14.71,11.42.75.58,1.5,1.16,2.24,1.75,1.06.83,1.06,1.84-.01,2.67-2.62,2.04-5.24,4.07-7.86,6.1-4,3.11-7.99,6.22-11.99,9.33-3.08,2.4-6.17,4.79-9.26,7.18-.27.21-.53.43-.81.63-.51.37-1.07.41-1.62.12-.53-.29-.76-.78-.76-1.38,0-3.33,0-6.67,0-10,0-.73,0-.74-.73-.73-6.73.11-13.03,1.87-18.93,5.07-2.87,1.56-5.53,3.42-8,5.55-3.83,3.31-7.09,7.13-9.8,11.41-3.45,5.43-5.89,11.28-7.45,17.51-.06.25-.1.52-.37.66-.36.19-.76-.03-.85-.52-.14-.82-.26-1.65-.35-2.47-.32-2.96-.48-5.93-.4-8.9.16-6.09,1.13-12.05,3-17.86,1.65-5.12,3.92-9.93,6.91-14.41,2.94-4.41,6.43-8.31,10.58-11.63,4.31-3.45,9.06-6.06,14.33-7.72,3-.95,6.08-1.53,9.22-1.75.78-.06,1.57-.1,2.35-.08.38,0,.51-.12.5-.51-.02-1.73,0-3.46,0-5.2Z"/></g></g></g></svg>