<?xml version="1.0" encoding="UTF-8"?><svg id="Capa_2" xmlns="http://www.w3.org/2000/svg"  viewBox="0 0 180 180"><defs><style>
.mapa1,
.mapa2{fill:val(--azul);}
.mapa3{fill:val(--amarillo);}
.mapa2{stroke:val(--amarillo);stroke-miterlimit:10;stroke-width:5px;}
</style></defs><g id="Capa_1-2"><g><circle class="mapa3" cx="90" cy="90" r="90"/><g><path class="mapa1" d="m50.34,67.57c-8.22,17.01-16.44,34.02-24.66,51.03-.95,1.97-.91,4.46.78,6.06,13.19,12.49,29.91,22.33,48.68,19.08,10.03-1.74,18.55-6.72,29.09-5.67s20.47,6.59,28.69,13.27c2.77,2.26,7.37,1.75,8.36-2.21,4.35-17.42,9.16-34.79,13.07-52.3.73-3.28.66-5.11-1.55-7.68-2.02-2.34-4.28-4.44-6.7-6.35-5.26-4.13-11.36-7.1-18.01-8.08-12.68-1.88-24,5.25-36.54,5.1s-24.34-6.6-34.35-14.04c-5.17-3.84-10.16,4.84-5.05,8.63,12.84,9.54,28.39,16.89,44.78,15.14,8.76-.93,17.14-5.19,25.95-5.24,9.67-.06,17.58,5.74,23.61,12.78l-1.29-4.86c-4.52,18.08-9.03,36.16-13.55,54.24,2.79-.74,5.57-1.47,8.36-2.21-16.58-13.48-35.98-20.18-56.9-13.19-7.85,2.62-15.37,4.4-23.58,2.37-10.07-2.49-18.56-8.83-25.97-15.85l.78,6.06c8.22-17.01,16.44-34.02,24.66-51.03,2.79-5.77-5.83-10.85-8.63-5.05Z"/><path class="mapa2" d="m89.98,32.2c-16.74,0-27.24,16.01-27.7,27.7-.13,3.31.5,7.31,8.86,21.59,7.18,12.26,13.99,21.75,18.83,28.08,5.16-5.71,12.36-14.58,19.15-26.63,6.02-10.68,9.03-16.17,8.54-23.04-.81-11.61-10.93-27.69-27.7-27.7Zm0,40.57c-8.51,0-15.39-6.89-15.39-15.39s6.88-15.39,15.39-15.39,15.39,6.88,15.39,15.39-6.89,15.39-15.39,15.39Z"/><path class="mapa1" d="m89.98,32.2c-16.74,0-27.24,16.01-27.7,27.7-.13,3.31.5,7.31,8.86,21.59,7.18,12.26,13.99,21.75,18.83,28.08,5.16-5.71,12.36-14.58,19.15-26.63,6.02-10.68,9.03-16.17,8.54-23.04-.81-11.61-10.93-27.69-27.7-27.7Zm0,40.57c-8.51,0-15.39-6.89-15.39-15.39s6.88-15.39,15.39-15.39,15.39,6.88,15.39,15.39-6.89,15.39-15.39,15.39Z"/></g></g></g></svg>