<?xml version="1.0" encoding="UTF-8"?><svg id="Capa_2" xmlns="http://www.w3.org/2000/svg"  viewBox="0 0 180 180"><defs><style>
.cls-1{fill:var(--azul);}
.cls-2{fill:var(--amarillo);}
</style></defs><g id="Capa_1-2"><g><circle class="cls-2" cx="90" cy="90" r="90"/><g><path class="cls-1" d="m95.73,62.38v-21.03c0-7.37-11.46-7.38-11.46,0v21.03c0,7.37,11.46,7.38,11.46,0h0Z"/><g><path class="cls-1" d="m90,132.65c-36.73,0-66.5-15.67-66.5-35s29.77-35,66.5-35c-19.33,0-35,15.67-35,35s15.67,35,35,35Z"/><path class="cls-1" d="m156.5,97.65c0,19.33-29.77,35-66.5,35,19.33,0,35-15.67,35-35s-15.67-35-35-35c36.73,0,66.5,15.67,66.5,35Z"/><circle class="cls-2" cx="90" cy="97.65" r="36"/><circle class="cls-1" cx="90" cy="97.65" r="17.5"/></g><g><path class="cls-1" d="m137.44,75.58c4.22-5.54,8.44-11.08,12.66-16.62,1.65-2.16.32-5.57-1.79-6.84-2.55-1.53-5.21-.34-6.84,1.79-4.22,5.54-8.44,11.08-12.66,16.62-1.65,2.16-.32,5.57,1.79,6.84,2.55,1.53,5.21.34,6.84-1.79h0Z"/><path class="cls-1" d="m51.2,70.54c-4.22-5.54-8.44-11.08-12.66-16.62-1.65-2.16-4.29-3.25-6.84-1.79-2.13,1.21-3.43,4.7-1.79,6.84,4.22,5.54,8.44,11.08,12.66,16.62,1.65,2.16,4.29,3.25,6.84,1.79,2.13-1.21,3.43-4.7,1.79-6.84h0Z"/></g></g></g></g></svg>