<?xml version="1.0" encoding="UTF-8"?><svg id="Capa_2" xmlns="http://www.w3.org/2000/svg" viewBox="0 0 130 130"><defs><style>
.user1{fill:var(--azul);}
.user2{fill:var(--blanco);}
</style></defs><g id="Capa_1-2"><g><path class="user1" d="m130,65c0,15.21-5.23,29.21-13.99,40.28-11.9,15.06-30.32,24.72-51.01,24.72s-39.11-9.66-51.01-24.72C5.23,94.21,0,80.21,0,65,0,29.11,29.1,0,65,0s65,29.11,65,65Z"/><path class="user2" d="m116.01,105.28c-11.9,15.06-30.32,24.72-51.01,24.72s-39.11-9.66-51.01-24.72c7.18-14.92,18.21-26.46,31.3-32.31,6.17-2.77,12.81-4.27,19.71-4.27s13.54,1.5,19.71,4.27c13.09,5.85,24.12,17.39,31.3,32.31Z"/><circle class="user2" cx="65" cy="50.37" r="30"/></g></g></svg>