<?xml version="1.0" encoding="UTF-8"?><svg id="Capa_2" xmlns="http://www.w3.org/2000/svg"  viewBox="0 0 180 180"><defs><style>
.cls-111{fill:var(--azul);}
.cls-2{fill:var(--amarillo);}
</style></defs><g id="Capa_1-2"><g><circle class="cls-2" cx="90" cy="90" r="90"/><g><path class="cls-111" d="m137,41.64c-2.63,9.67-5.26,19.34-7.9,29.01-4.71,17.28-9.42,34.55-14.13,51.82-.62,2.26-1.32,4.49-1.86,6.77-.31,1.29-.83,1.48-2.02.99-9.23-3.79-18.47-7.53-27.71-11.28-3.02-1.22-6.06-2.38-9.08-3.6-.9-.36-1.79-.74-2.63-1.21-3.28-1.86-4.02-5.12-1.77-8.12,1.16-1.54,2.52-2.93,3.84-4.34,9.41-10.08,18.85-20.14,28.26-30.23,4.72-5.06,9.41-10.16,14.1-15.24.23-.25.44-.51.48-.98-.97.7-1.96,1.37-2.89,2.11-17.51,13.8-35.02,27.6-52.51,41.42-2.81,2.22-5.59,4.45-9.27,5.04-3.21.52-6.37.47-9.45-.8-3.81-1.56-7.66-3.05-11.5-4.54-1.55-.6-2.9-1.46-3.97-2.74v-2.14c.8-1.67,2.34-2.5,3.87-3.31,14.68-7.71,29.37-15.41,44.06-23.12,14.28-7.49,28.56-15,42.85-22.48,4.78-2.5,9.56-5,14.39-7.38,2.25-1.11,3.24-.79,4.82.99,0,1.12,0,2.24,0,3.36Z"/><path class="cls-111" d="m75.74,126.45c.01,1.44-.46,2.73-1.21,3.9-2.63,4.05-5.3,8.08-7.97,12.1-.24.37-.48.95-.95.9-.54-.05-.47-.71-.61-1.12-2.49-7-5.47-13.8-8.19-20.7-.43-1.09-.88-2.16-.95-3.36-.12-2.1.89-3.16,3.01-2.98.7.06,1.42.2,2.07.46,3.5,1.39,7.01,2.74,10.45,4.27,2.78,1.23,4.39,3.38,4.35,6.54Z"/></g></g></g></svg>