<?xml version="1.0" encoding="UTF-8"?><svg id="Capa_2" xmlns="http://www.w3.org/2000/svg"  viewBox="0 0 180 180"><defs><style>
.cls-1{fill:var(--azul);}
.cls-2{fill:var(--negro);}
.cls-3{fill:var(--amarillo);}
</style></defs><g id="Capa_1-2"><g><circle class="cls-3" cx="90" cy="90" r="90"/><g><g><rect class="cls-2" x="109.23" y="88.7" width="5" height="55" rx="2.5" ry="2.5"/><ellipse class="cls-2" cx="111.73" cy="80.59" rx="12.5" ry="5"/><rect class="cls-2" x="99.23" y="139.7" width="25" height="5" rx="2.28" ry="2.28"/></g><path class="cls-1" d="m119.27,56.61h0c0,2.83-2.29,5.13-5.12,5.13h-21.46c-11.5,0-20.82,9.33-20.82,20.85v14.84c0,11.51,9.32,20.84,20.81,20.84h21.46c2.83,0,5.12,2.29,5.12,5.13h0c0,4.98-4.02,9.01-8.99,9.01h-22.76c-17.54,0-31.75-14.24-31.75-31.8v-21.2c0-17.56,14.22-31.8,31.75-31.8h22.76c4.97,0,8.99,4.03,8.99,9Z"/><rect class="cls-1" x="105.11" y="113.53" width="14.16" height="23.14" rx="3.26" ry="3.26"/></g></g></g></svg>