<?xml version="1.0" encoding="UTF-8"?><svg id="Capa_2" xmlns="http://www.w3.org/2000/svg"  viewBox="0 0 180 180"><defs><style>
.cls-1{fill:var(--azul);}
.cls-2{fill:var(--amarillo);}
</style></defs><g id="Capa_1-2"><g><circle class="cls-2" cx="90" cy="90" r="90"/><path class="cls-1" d="m81.38,130.29c0,2.08-.01,4.17,0,6.25,0,.83-.27,1.49-1.03,1.87-.76.39-1.45.19-2.11-.32-5.35-4.16-10.71-8.32-16.07-12.48-6.13-4.76-12.26-9.52-18.39-14.28-.94-.73-1.87-1.46-2.8-2.19-1.33-1.04-1.33-2.3.02-3.34,3.27-2.55,6.55-5.08,9.82-7.63,5-3.89,9.99-7.78,14.99-11.66,3.85-3,7.71-5.98,11.57-8.98.34-.26.67-.54,1.02-.79.64-.46,1.34-.52,2.02-.15.67.36.95.97.95,1.73,0,4.17,0,8.34,0,12.5,0,.92,0,.92.91.91,8.42-.14,16.28-2.34,23.67-6.34,3.59-1.95,6.91-4.28,10-6.94,4.79-4.14,8.86-8.92,12.26-14.26,4.31-6.78,7.36-14.1,9.31-21.89.08-.31.13-.65.46-.82.45-.24.95.03,1.06.65.17,1.03.32,2.06.43,3.09.41,3.7.6,7.41.5,11.13-.2,7.62-1.41,15.07-3.75,22.33-2.06,6.4-4.9,12.42-8.63,18.01-3.67,5.51-8.04,10.39-13.22,14.54-5.38,4.31-11.33,7.57-17.91,9.65-3.75,1.18-7.6,1.91-11.53,2.19-.98.07-1.96.12-2.94.11-.48,0-.63.15-.63.64.02,2.17.01,4.33.01,6.5Z"/></g></g></svg>