<?xml version="1.0" encoding="UTF-8"?><svg id="Capa_2" xmlns="http://www.w3.org/2000/svg" width="91.67" height="130" viewBox="0 0 91.67 130"><defs><style>
.cls-1{fill: var(--blanco);}
.cls-2{fill: var(--azul);}
</style></defs><g id="Capa_1-2"><g><g><rect class="cls-2" x="71.58" y="55.02" width="6.69" height="73.64" rx="3.35" ry="3.35"/><ellipse class="cls-2" cx="74.93" cy="44.17" rx="16.74" ry="6.69"/><rect class="cls-2" x="58.19" y="123.31" width="33.47" height="6.69" rx="3.06" ry="3.06"/></g><path class="cls-1" d="m85.02,12.06h0c0,3.79-3.07,6.86-6.85,6.86h-28.73c-15.39,0-27.87,12.5-27.87,27.91v19.87c0,15.41,12.48,27.91,27.87,27.91h28.74c3.78,0,6.85,3.07,6.85,6.86h0c0,6.67-5.39,12.06-12.03,12.06h-30.48C19.03,113.53,0,94.47,0,70.96v-28.38C0,19.06,19.03,0,42.51,0h30.47c6.65,0,12.04,5.4,12.04,12.06Z"/><rect class="cls-1" x="66.07" y="88.27" width="18.96" height="30.99" rx="4.37" ry="4.37"/></g></g></svg>